<svg width="16" height="16" viewBox="0 0 16 16" fill="none" xmlns="http://www.w3.org/2000/svg">
<path d="M1.5 12.5V11C1.5 10.7239 1.72386 10.5 2 10.5C2.27614 10.5 2.5 10.7239 2.5 11V12.5C2.5 13.0523 2.94772 13.5 3.5 13.5H12.5C13.0523 13.5 13.5 13.0523 13.5 12.5V11C13.5 10.7239 13.7239 10.5 14 10.5C14.2761 10.5 14.5 10.7239 14.5 11V12.5C14.5 13.6046 13.6046 14.5 12.5 14.5H3.5C2.39543 14.5 1.5 13.6046 1.5 12.5ZM7.5 11V3.20703L5.35352 5.35352C5.15825 5.54878 4.84175 5.54878 4.64648 5.35352C4.45122 5.15825 4.45122 4.84175 4.64648 4.64649L7.64648 1.64649L7.68424 1.61198C7.88063 1.45177 8.17045 1.46342 8.35352 1.64649L11.3535 4.64649C11.5488 4.84175 11.5488 5.15825 11.3535 5.35352C11.1583 5.54878 10.8417 5.54878 10.6465 5.35352L8.5 3.20703V11C8.5 11.2761 8.27614 11.5 8 11.5C7.72386 11.5 7.5 11.2761 7.5 11Z" fill="white"/>
</svg>
