<svg width="16" height="16" viewBox="0 0 16 16" fill="none" xmlns="http://www.w3.org/2000/svg">
<path d="M12.5 8.5C12.5 7.94772 12.0523 7.5 11.5 7.5V11.5C11.5 12.6046 10.6046 13.5 9.5 13.5H5.5C5.5 14.0523 5.94772 14.5 6.5 14.5H11.5C12.0523 14.5 12.5 14.0523 12.5 13.5V8.5ZM6.5 1C6.5 0.723858 6.72386 0.5 7 0.5C7.27614 0.5 7.5 0.723858 7.5 1V8.29297L8.64648 7.14648C8.84175 6.95122 9.15825 6.95122 9.35352 7.14648C9.54878 7.34175 9.54878 7.65825 9.35352 7.85352L7.35352 9.85352C7.25975 9.94728 7.13261 10 7 10C6.86739 10 6.74025 9.94728 6.64648 9.85352L4.64648 7.85352C4.45122 7.65825 4.45122 7.34175 4.64648 7.14648C4.84175 6.95122 5.15825 6.95122 5.35352 7.14648L6.5 8.29297V1ZM13.5 13.5C13.5 14.6046 12.6046 15.5 11.5 15.5H6.5C5.39543 15.5 4.5 14.6046 4.5 13.5C3.39543 13.5 2.5 12.6046 2.5 11.5V6.5C2.5 5.39543 3.39543 4.5 4.5 4.5H5C5.27614 4.5 5.5 4.72386 5.5 5C5.5 5.27614 5.27614 5.5 5 5.5H4.5C3.94772 5.5 3.5 5.94772 3.5 6.5V11.5C3.5 12.0523 3.94772 12.5 4.5 12.5H9.5C10.0523 12.5 10.5 12.0523 10.5 11.5V6.5C10.5 5.94772 10.0523 5.5 9.5 5.5H9C8.72386 5.5 8.5 5.27614 8.5 5C8.5 4.72386 8.72386 4.5 9 4.5H9.5C10.6046 4.5 11.5 5.39543 11.5 6.5C12.6046 6.5 13.5 7.39543 13.5 8.5V13.5Z" fill="white"/>
</svg>
