<svg width="16" height="16" viewBox="0 0 16 16" fill="none" xmlns="http://www.w3.org/2000/svg">
<path d="M1.48926 13.0963V9.76757C1.48939 9.49154 1.7132 9.26757 1.98926 9.26757H5.31738C5.59344 9.26757 5.81725 9.49154 5.81738 9.76757C5.81738 10.0437 5.59352 10.2676 5.31738 10.2676H3.19499L4.46322 11.5364H4.46387C5.06374 12.1374 5.82481 12.5934 6.7054 12.8294C9.37269 13.5441 12.1143 11.9615 12.8291 9.29426C12.9006 9.02753 13.175 8.86927 13.4417 8.94074C13.7083 9.01227 13.8665 9.28613 13.7952 9.55272C12.9376 12.7534 9.64766 14.653 6.44694 13.7956C5.39193 13.5129 4.47698 12.965 3.75618 12.2428L2.48926 10.9752V13.0963C2.48921 13.3724 2.26537 13.5963 1.98926 13.5963C1.71315 13.5963 1.48931 13.3724 1.48926 13.0963ZM2.2041 6.44725C3.06174 3.24649 6.35164 1.34683 9.55241 2.20442C10.6071 2.48702 11.5218 3.03467 12.2425 3.7565L13.5101 5.02343V2.90363C13.5102 2.62759 13.734 2.40363 14.0101 2.40363C14.2861 2.40364 14.51 2.6276 14.5101 2.90363V6.23241C14.51 6.50848 14.2862 6.7324 14.0101 6.73241H10.682C10.4059 6.73241 10.182 6.50848 10.182 6.23241C10.182 5.95627 10.4058 5.73241 10.682 5.73241H12.8044L11.5355 4.46418V4.46353C10.9356 3.86257 10.1745 3.40655 9.29394 3.17056C6.62671 2.45588 3.88508 4.03857 3.17025 6.70572C3.09878 6.97245 2.82435 7.1307 2.55762 7.05923C2.29093 6.98776 2.13269 6.71395 2.2041 6.44725Z" fill="white"/>
</svg>
