<svg width="16" height="16" viewBox="0 0 16 16" fill="none" xmlns="http://www.w3.org/2000/svg">
<path d="M13 4C13 3.44772 12.5523 3 12 3H4C3.44772 3 3 3.44772 3 4V12C3 12.5523 3.44772 13 4 13H12C12.5523 13 13 12.5523 13 12V4ZM6.14648 6.14648C6.34175 5.95122 6.65825 5.95122 6.85352 6.14648C7.04878 6.34175 7.04878 6.65825 6.85352 6.85352L5.70703 8L6.85352 9.14648C7.04878 9.34175 7.04878 9.65825 6.85352 9.85352C6.65825 10.0488 6.34175 10.0488 6.14648 9.85352L4.64648 8.35352C4.55272 8.25975 4.5 8.13261 4.5 8C4.5 7.86739 4.55272 7.74025 4.64648 7.64648L6.14648 6.14648ZM9.14648 6.14648C9.34175 5.95122 9.65825 5.95122 9.85352 6.14648L11.3535 7.64648C11.4473 7.74025 11.5 7.86739 11.5 8C11.5 8.13261 11.4473 8.25975 11.3535 8.35352L9.85352 9.85352C9.65825 10.0488 9.34175 10.0488 9.14648 9.85352C8.95122 9.65825 8.95122 9.34175 9.14648 9.14648L10.293 8L9.14648 6.85352C8.95122 6.65825 8.95122 6.34175 9.14648 6.14648ZM14 12C14 13.1046 13.1046 14 12 14H4C2.89543 14 2 13.1046 2 12V4C2 2.89543 2.89543 2 4 2H12C13.1046 2 14 2.89543 14 4V12Z" fill="white"/>
</svg>
