<svg width="16" height="16" viewBox="0 0 16 16" fill="none" xmlns="http://www.w3.org/2000/svg">
<path d="M9.01754 2.36848C9.09019 2.10209 9.36508 1.94495 9.63147 2.01757C9.89787 2.09022 10.055 2.36511 9.98238 2.6315L6.98238 13.6315C6.90973 13.8979 6.63485 14.055 6.36845 13.9824C6.10206 13.9098 5.94492 13.6349 6.01754 13.3685L9.01754 2.36848ZM4.14645 4.14648C4.34171 3.95121 4.65822 3.95121 4.85348 4.14648C5.04874 4.34174 5.04874 4.65825 4.85348 4.85351L1.70699 7.99999L4.85348 11.1465C5.04874 11.3417 5.04874 11.6582 4.85348 11.8535C4.65822 12.0488 4.34171 12.0488 4.14645 11.8535L0.646447 8.35351C0.451184 8.15825 0.451184 7.84174 0.646447 7.64648L4.14645 4.14648ZM11.1464 4.14648C11.3417 3.95121 11.6582 3.95121 11.8535 4.14648L15.3535 7.64648C15.5487 7.84174 15.5487 8.15825 15.3535 8.35351L11.8535 11.8535C11.6582 12.0488 11.3417 12.0488 11.1464 11.8535C10.9512 11.6582 10.9512 11.3417 11.1464 11.1465L14.2929 7.99999L11.1464 4.85351C10.9512 4.65825 10.9512 4.34174 11.1464 4.14648Z" fill="white"/>
</svg>
