<svg width="16" height="16" viewBox="0 0 16 16" fill="none" xmlns="http://www.w3.org/2000/svg">
<path d="M13.5 9.75C13.5 9.61193 13.3881 9.5 13.25 9.5H10.7428L6.74219 13.5H13.25C13.3881 13.5 13.5 13.3881 13.5 13.25V9.75ZM4.50521 11C4.78126 11.0001 5.00521 11.2239 5.00521 11.5V11.5052C5.0051 11.7812 4.78119 12.0051 4.50521 12.0052H4.5C4.22393 12.0052 4.00011 11.7813 4 11.5052V11.5C4 11.2239 4.22386 11 4.5 11H4.50521ZM9.6263 3.89844C9.52866 3.801 9.37035 3.80087 9.27279 3.89844L7.5 5.67122V11.3281L12.1016 6.72721C12.1991 6.62965 12.199 6.47134 12.1016 6.3737L9.6263 3.89844ZM6.5 2.75C6.5 2.61193 6.38807 2.5 6.25 2.5H2.75C2.61193 2.5 2.5 2.61193 2.5 2.75V11.5C2.5 12.0523 2.72401 12.5521 3.08594 12.9141C3.1283 12.9564 3.17239 12.9961 3.21745 13.0339C3.22252 13.0381 3.22731 13.0427 3.23242 13.0469C3.27822 13.0845 3.3255 13.1194 3.3737 13.1523C3.37758 13.155 3.38152 13.1575 3.38542 13.1602C3.42443 13.1864 3.46484 13.2099 3.50521 13.2331C3.52072 13.242 3.53566 13.2519 3.55143 13.2604C3.58471 13.2784 3.61896 13.294 3.65299 13.3099C3.68109 13.3231 3.70884 13.3371 3.73763 13.349C3.75881 13.3577 3.78068 13.3644 3.80208 13.3724C3.84205 13.3873 3.88205 13.4023 3.92318 13.4147C3.94383 13.4209 3.96488 13.4255 3.98568 13.431C4.02825 13.4423 4.07094 13.4537 4.11458 13.4622C4.11721 13.4628 4.11976 13.4637 4.1224 13.4642C4.18205 13.4756 4.24263 13.4843 4.30404 13.4902C4.43414 13.503 4.56521 13.5029 4.69531 13.4902C4.75672 13.4843 4.81729 13.4756 4.87695 13.4642C4.87959 13.4637 4.88213 13.4628 4.88477 13.4622C4.92841 13.4537 4.97109 13.4423 5.01367 13.431C5.03448 13.4255 5.05552 13.4209 5.07617 13.4147C5.11731 13.4024 5.15729 13.3873 5.19727 13.3724C5.21868 13.3644 5.24054 13.3577 5.26172 13.349C5.29052 13.3371 5.31825 13.3231 5.34635 13.3099C5.3804 13.294 5.41463 13.2784 5.44792 13.2604C5.46369 13.2519 5.47862 13.242 5.49414 13.2331C5.53453 13.2099 5.5749 13.1864 5.61393 13.1602C5.61783 13.1575 5.62177 13.155 5.62565 13.1523C5.67386 13.1194 5.72112 13.0845 5.76693 13.0469C5.77204 13.0427 5.77683 13.0381 5.7819 13.0339C5.8271 12.996 5.87158 12.9565 5.91406 12.9141C6.27599 12.5521 6.5 12.0523 6.5 11.5V2.75ZM7.5 4.25716L8.56576 3.19141C9.05385 2.70332 9.84516 2.70344 10.3333 3.19141L12.8086 5.66667C13.2966 6.15484 13.2967 6.94615 12.8086 7.43424L11.7428 8.5H13.25C13.9404 8.5 14.5 9.05964 14.5 9.75V13.25C14.5 13.9404 13.9404 14.5 13.25 14.5H4.5C4.4492 14.5 4.3984 14.4987 4.34766 14.4961C4.33939 14.4957 4.33117 14.4946 4.32292 14.4941C4.28184 14.4917 4.24084 14.4885 4.19987 14.4844C4.18484 14.4829 4.16991 14.4809 4.15495 14.4792C4.12129 14.4753 4.08757 14.4718 4.05404 14.4668C4.03438 14.4639 4.01497 14.4597 3.99544 14.4564C3.96632 14.4514 3.93719 14.4466 3.9082 14.4408C3.87937 14.435 3.85079 14.4285 3.82227 14.4219C3.80775 14.4185 3.79312 14.4157 3.77865 14.4121C3.74144 14.4029 3.70462 14.3927 3.66797 14.3822C3.65754 14.3792 3.64712 14.3762 3.63672 14.373C3.60985 14.365 3.58319 14.3564 3.55664 14.3477C3.53072 14.3391 3.50489 14.3303 3.47917 14.321C3.46695 14.3165 3.45485 14.3119 3.44271 14.3073C3.41136 14.2955 3.37998 14.2837 3.34896 14.2708C3.32425 14.2606 3.29976 14.2498 3.27539 14.2389C3.25802 14.2312 3.24055 14.2236 3.22331 14.2155C3.19984 14.2044 3.17678 14.1926 3.15365 14.181C3.12905 14.1686 3.1044 14.1563 3.08008 14.1432C3.06578 14.1355 3.05192 14.1271 3.03776 14.1191C3.01074 14.104 2.98367 14.0889 2.95703 14.0729C2.94123 14.0634 2.92577 14.0534 2.91016 14.0436C2.88281 14.0265 2.85567 14.009 2.82878 13.9909C2.81828 13.9838 2.80793 13.9766 2.79753 13.9694C2.76916 13.9498 2.74071 13.9302 2.71289 13.9095C2.69413 13.8956 2.67597 13.8809 2.65755 13.8665C2.63785 13.8512 2.61771 13.8363 2.59831 13.8203C2.57641 13.8023 2.55523 13.7835 2.53385 13.765C2.5196 13.7526 2.50496 13.7406 2.49089 13.7279L2.37891 13.6211C1.83601 13.0782 1.5 12.3284 1.5 11.5V2.75C1.5 2.05964 2.05964 1.5 2.75 1.5H6.25C6.94036 1.5 7.5 2.05964 7.5 2.75V4.25716Z" fill="white"/>
</svg>
