<svg width="16" height="16" viewBox="0 0 16 16" fill="none" xmlns="http://www.w3.org/2000/svg">
<path d="M1 12V4C1 2.89543 1.89543 2 3 2H6.58594C6.98371 2.00004 7.36522 2.15818 7.64648 2.43945L9.06055 3.85352C9.15428 3.94725 9.28151 3.99996 9.41406 4H13C14.1046 4 15 4.89543 15 6V12C15 13.1046 14.1046 14 13 14H3C1.89543 14 1 13.1046 1 12ZM7.5 7C7.5 6.72386 7.72386 6.5 8 6.5C8.27614 6.5 8.5 6.72386 8.5 7V9.79297L9.64648 8.64648C9.84175 8.45122 10.1583 8.45122 10.3535 8.64648C10.5488 8.84175 10.5488 9.15825 10.3535 9.35352L8.35352 11.3535C8.25975 11.4473 8.13261 11.5 8 11.5C7.86739 11.5 7.74025 11.4473 7.64648 11.3535L5.64648 9.35352C5.45122 9.15825 5.45122 8.84175 5.64648 8.64648C5.84175 8.45122 6.15825 8.45122 6.35352 8.64648L7.5 9.79297V7ZM2 12C2 12.5523 2.44772 13 3 13H13C13.5523 13 14 12.5523 14 12V6C14 5.44772 13.5523 5 13 5H9.41406C9.01629 4.99996 8.63478 4.84182 8.35352 4.56055L6.93945 3.14648C6.84572 3.05275 6.71849 3.00004 6.58594 3H3C2.44772 3 2 3.44772 2 4V12Z" fill="white"/>
</svg>
