<svg width="16" height="16" viewBox="0 0 16 16" fill="none" xmlns="http://www.w3.org/2000/svg">
<path d="M7.5 11.25C7.5 11.1119 7.38807 11 7.25 11H2.25C2.11193 11 2 11.1119 2 11.25V12.25C2 12.3709 2.08584 12.4716 2.19987 12.4948L2.25 12.5H7.25C7.38807 12.5 7.5 12.3881 7.5 12.25V11.25ZM2.25 8.5C2.11193 8.5 2 8.61193 2 8.75V9.75C2 9.88807 2.11193 10 2.25 10H7.25C7.38807 10 7.5 9.88807 7.5 9.75V8.75C7.5 8.61193 7.38807 8.5 7.25 8.5H2.25ZM2.25 6C2.11193 6 2 6.11193 2 6.25V7.25C2 7.38807 2.11193 7.5 2.25 7.5H7.25C7.38807 7.5 7.5 7.38807 7.5 7.25V6.25C7.5 6.11193 7.38807 6 7.25 6H2.25ZM14 3.75C14 3.61193 13.8881 3.5 13.75 3.5H2.25C2.11193 3.5 2 3.61193 2 3.75V4.75C2 4.87089 2.08584 4.97156 2.19987 4.99479L2.25 5H13.75C13.8881 5 14 4.88807 14 4.75V3.75ZM8.5 12.25C8.5 12.3881 8.61193 12.5 8.75 12.5H13.75C13.8881 12.5 14 12.3881 14 12.25V11.25C14 11.1119 13.8881 11 13.75 11H8.75C8.61193 11 8.5 11.1119 8.5 11.25V12.25ZM8.5 9.75C8.5 9.88807 8.61193 10 8.75 10H13.75C13.8881 10 14 9.88807 14 9.75V8.75C14 8.61193 13.8881 8.5 13.75 8.5H8.75C8.61193 8.5 8.5 8.61193 8.5 8.75V9.75ZM8.5 7.25C8.5 7.38807 8.61193 7.5 8.75 7.5H13.75C13.8881 7.5 14 7.38807 14 7.25V6.25C14 6.11193 13.8881 6 13.75 6H8.75C8.61193 6 8.5 6.11193 8.5 6.25V7.25ZM15 12.25C15 12.9404 14.4404 13.5 13.75 13.5H2.25C1.55964 13.5 1 12.9404 1 12.25V3.75C1 3.05964 1.55964 2.5 2.25 2.5H13.75C14.4404 2.5 15 3.05964 15 3.75V12.25Z" fill="white"/>
</svg>
