<svg width="16" height="16" viewBox="0 0 16 16" fill="none" xmlns="http://www.w3.org/2000/svg">
<path d="M10.0002 2.98568C10.0002 2.4562 9.5944 2.03371 9.09136 2.01758C8.72911 2.00599 8.36531 2 8.00021 2C7.63511 2 7.27131 2.00599 6.90906 2.01758C6.40602 2.03371 6.00021 2.4562 6.00021 2.98568V3.0612C6.6618 3.02102 7.32864 3 8.00021 3C8.67179 3 9.33862 3.02102 10.0002 3.0612V2.98568ZM8.00021 4C7.17177 4 6.35078 4.03229 5.53862 4.09505C4.92606 4.14239 4.31853 4.20784 3.71636 4.28971L4.39214 13.0768C4.43227 13.5978 4.86704 14 5.38953 14H10.6109C11.1334 14 11.5681 13.5978 11.6083 13.0768L12.2834 4.28971C11.6814 4.20789 11.0741 4.14237 10.4618 4.09505C9.64964 4.03229 8.82865 4 8.00021 4ZM6.15386 5.50065C6.42969 5.49004 6.66196 5.70468 6.67274 5.98047L6.90386 11.9805C6.91447 12.2564 6.69927 12.4887 6.42339 12.4993C6.14756 12.51 5.91529 12.2953 5.90451 12.0195L5.67339 6.01953C5.66278 5.74367 5.87803 5.51138 6.15386 5.50065ZM9.84656 5.50065C10.1224 5.51138 10.3376 5.74367 10.327 6.01953L10.0959 12.0195C10.0851 12.2953 9.85287 12.51 9.57703 12.4993C9.30115 12.4887 9.08595 12.2564 9.09656 11.9805L9.32768 5.98047C9.33846 5.70468 9.57073 5.49004 9.84656 5.50065ZM11.0002 3.13737C11.6367 3.19563 12.2681 3.27144 12.8934 3.36589C13.125 3.40085 13.3556 3.43869 13.5855 3.47852C13.8575 3.52564 14.04 3.78399 13.993 4.05599C13.9459 4.32806 13.687 4.51064 13.4149 4.46354C13.3684 4.45548 13.3216 4.44861 13.2749 4.44076L12.605 13.1536C12.5247 14.1955 11.6559 15 10.6109 15H5.38953C4.34455 15 3.47568 14.1955 3.39539 13.1536L2.72482 4.44076C2.67842 4.44858 2.63183 4.45552 2.5855 4.46354C2.31343 4.51064 2.0545 4.32806 2.00737 4.05599C1.96039 3.78399 2.14291 3.52563 2.41492 3.47852C2.64482 3.43869 2.87547 3.40085 3.10698 3.36589C3.73236 3.27144 4.36375 3.19563 5.00021 3.13737V2.98568C5.00021 1.9427 5.80857 1.05242 6.87716 1.01823C7.25006 1.0063 7.62445 1 8.00021 1C8.37597 1 8.75036 1.0063 9.12326 1.01823C10.1919 1.05242 11.0002 1.9427 11.0002 2.98568V3.13737Z" fill="white"/>
</svg>
